<?xml version="1.0" encoding="UTF-8"?>
<svg id="Laag_1" data-name="Laag 1" xmlns="http://www.w3.org/2000/svg" viewBox="0 0 732.52 183.19">
  <g>
    <path d="m331.52,61.97h-36.86l-6.43,16.81h-12.4L306.67,1.01h12.81l30.83,77.77h-12.35l-6.43-16.81Zm-4-10.53l-14.43-37.67-14.38,37.67h28.81Z" style="stroke-width: 0px;"/>
    <path d="m360.36,1.01h11.29v77.77h-11.29V1.01Z" style="stroke-width: 0px;"/>
    <path d="m387.52,1.01h11.29v77.77h-11.29V1.01Z" style="stroke-width: 0px;"/>
    <path d="m413.32,7.04c0-4,3.24-7.04,7.09-7.04s7.04,3.04,7.04,7.04-3.24,6.99-7.04,6.99-7.09-3.14-7.09-6.99Zm1.37,18.13h11.24v53.62h-11.24V25.16Z" style="stroke-width: 0px;"/>
    <path d="m437.34,51.9c0-15.75,12.2-27.74,26.48-27.74,8.51,0,15.09,3.39,19.39,8.81v-7.8h11.24v53.62h-11.29v-7.8c-4.25,5.37-10.83,8.81-19.34,8.81-14.28,0-26.48-12.1-26.48-27.9Zm46.58,0c0-10.18-7.75-17.77-17.62-17.77s-17.72,7.59-17.72,17.77,7.9,17.87,17.72,17.87,17.62-7.65,17.62-17.87Z" style="stroke-width: 0px;"/>
    <path d="m557.72,46.17v32.61h-11.29v-30.99c0-10.38-5.06-13.87-12-13.87s-12.76,4.71-12.81,14.23v30.63h-11.29V25.16h11.29v7.65c3.44-5.47,9.01-8.66,16.1-8.66,11.7,0,20,7.39,20,22.02Z" style="stroke-width: 0px;"/>
    <path d="m567.87,51.9c0-15.75,12.2-27.9,26.48-27.9,8.46,0,15.09,3.54,19.34,8.96l.05-31.95h11.24v77.77h-11.29v-7.8c-4.25,5.37-10.83,8.86-19.34,8.86-14.28,0-26.48-12.15-26.48-27.95Zm46.58,0c0-10.18-7.75-17.77-17.62-17.77s-17.72,7.59-17.72,17.77,7.9,17.87,17.72,17.87,17.62-7.65,17.62-17.87Z" style="stroke-width: 0px;"/>
    <path d="m692.09,53.57h-44.91c.51,9.97,8.2,16.81,17.52,16.81,6.23,0,11.85-2.99,15.14-8.3l9.16,3.9c-4.61,8.56-13.47,13.82-24.25,13.82-16.51,0-28.45-12.35-28.45-27.85s12.15-27.85,28.2-27.85,27.34,11.34,27.69,27.24l-.1,2.23Zm-44.25-7.7h32.76c-1.62-7.8-8-12.81-16.05-12.81s-14.63,5.06-16.71,12.81Z" style="stroke-width: 0px;"/>
    <path d="m732.52,24.66v10.78c-10.94,0-18.28,4-18.28,15.85v27.49h-11.29V25.16h10.99v9.52c3.14-5.32,9.57-9.77,18.58-10.02Z" style="stroke-width: 0px;"/>
  </g>
  <g>
    <path d="m11.95,107.76v22.68h28.61v10.73H11.95v33.52H0v-77.77h44.91v10.83H11.95Z" style="stroke-width: 0px;"/>
    <path d="m49.74,147.86c0-15.75,12.56-27.8,28.66-27.8s28.66,12.05,28.66,27.8-12.56,27.85-28.66,27.85-28.66-12.05-28.66-27.85Zm46.33,0c0-9.97-7.9-17.67-17.72-17.67s-17.67,7.65-17.67,17.67,7.85,17.72,17.67,17.72,17.72-7.7,17.72-17.72Z" style="stroke-width: 0px;"/>
    <path d="m117.01,155.65v-34.58h11.14v34.02c0,7.24,5.11,10.53,11.9,10.53s11.9-3.29,11.9-10.53v-34.02h11.14v34.58c0,12.61-8.96,20.05-23.04,20.05s-23.04-7.44-23.04-20.05Z" style="stroke-width: 0px;"/>
    <path d="m225.03,142.09v32.61h-11.29v-30.99c0-10.38-5.06-13.87-12-13.87s-12.76,4.71-12.81,14.23v30.63h-11.29v-53.62h11.29v7.65c3.44-5.47,9.01-8.66,16.1-8.66,11.7,0,20,7.39,20,22.02Z" style="stroke-width: 0px;"/>
    <path d="m235.18,147.81c0-15.75,12.2-27.9,26.48-27.9,8.46,0,15.09,3.54,19.34,8.96l.05-31.95h11.24v77.77h-11.29v-7.8c-4.25,5.37-10.83,8.86-19.34,8.86-14.28,0-26.48-12.15-26.48-27.95Zm46.58,0c0-10.18-7.75-17.77-17.62-17.77s-17.72,7.59-17.72,17.77,7.9,17.87,17.72,17.87,17.62-7.65,17.62-17.87Z" style="stroke-width: 0px;"/>
    <path d="m303.71,147.81c0-15.75,12.2-27.74,26.48-27.74,8.51,0,15.09,3.39,19.39,8.81v-7.8h11.24v53.62h-11.29v-7.8c-4.25,5.37-10.83,8.81-19.34,8.81-14.28,0-26.48-12.1-26.48-27.9Zm46.58,0c0-10.18-7.75-17.77-17.62-17.77s-17.72,7.59-17.72,17.77,7.9,17.87,17.72,17.87,17.62-7.65,17.62-17.87Z" style="stroke-width: 0px;"/>
    <path d="m390,129.73v27.95c0,5.21,2.99,7.95,7.29,7.95h5.82v9.06h-8.1c-9.82,0-16.3-5.52-16.3-15.7v-29.26h-8.76v-8.66h8.76v-14.83h11.29v14.83h13.21v8.66h-13.21Z" style="stroke-width: 0px;"/>
    <path d="m427.29,167.65c0,4-3.24,7.04-7.09,7.04s-7.04-3.04-7.04-7.04,3.24-6.99,7.04-6.99,7.09,3.14,7.09,6.99Zm-1.37-18.13h-11.24v-53.62h11.24v53.62Z" style="stroke-width: 0px;"/>
    <path d="m437.09,147.86c0-15.75,12.56-27.8,28.66-27.8s28.66,12.05,28.66,27.8-12.56,27.85-28.66,27.85-28.66-12.05-28.66-27.85Zm46.33,0c0-9.97-7.9-17.67-17.72-17.67s-17.67,7.65-17.67,17.67,7.85,17.72,17.67,17.72,17.72-7.7,17.72-17.72Z" style="stroke-width: 0px;"/>
    <path d="m553.11,142.09v32.61h-11.29v-30.99c0-10.38-5.06-13.87-12-13.87s-12.76,4.71-12.81,14.23v30.63h-11.29v-53.62h11.29v7.65c3.44-5.47,9.01-8.66,16.1-8.66,11.7,0,20,7.39,20,22.02Z" style="stroke-width: 0px;"/>
  </g>
  <g>
    <path d="m597.48,120.09l-8.03,18.1h-2.85l-8-18.1h4.07l5.37,13.52,5.38-13.52h4.07Z" style="stroke-width: 0px;"/>
    <path d="m617.34,129.67h-15.16c.17,3.37,2.77,5.67,5.91,5.67,2.1,0,4-1.01,5.11-2.8l3.09,1.32c-1.56,2.89-4.55,4.67-8.19,4.67-5.57,0-9.6-4.17-9.6-9.4s4.1-9.4,9.52-9.4,9.23,3.83,9.35,9.19l-.04.75Zm-14.94-2.6h11.06c-.55-2.63-2.7-4.32-5.42-4.32s-4.94,1.71-5.64,4.32Z" style="stroke-width: 0px;"/>
    <path d="m630.99,119.92v3.64c-3.69,0-6.17,1.35-6.17,5.35v9.28h-3.81v-18.1h3.71v3.21c1.06-1.79,3.23-3.3,6.27-3.38Z" style="stroke-width: 0px;"/>
    <path d="m632.85,142.08l2.67-2.17c1.5,2.67,3.78,3.49,6.07,3.49,3.76,0,5.62-2.19,5.62-5.52v-2.75c-1.3,1.73-3.32,2.85-6.03,2.85-5.04,0-8.96-3.95-8.96-9.14s3.91-9.09,8.92-9.09c2.73,0,4.73,1.13,6.07,2.87v-2.53h3.83v17.57c0,5.4-3.37,9.04-9.37,9.04-3.2,0-6.55-1.08-8.82-4.61Zm14.58-13.25c0-3.3-2.56-5.78-5.72-5.78s-5.69,2.48-5.69,5.78,2.53,5.74,5.69,5.74,5.72-2.46,5.72-5.74Z" style="stroke-width: 0px;"/>
    <path d="m666.37,119.92v3.64c-3.69,0-6.17,1.35-6.17,5.35v9.28h-3.81v-18.1h3.71v3.21c1.06-1.79,3.23-3.3,6.27-3.38Z" style="stroke-width: 0px;"/>
    <path d="m667.59,129.13c0-5.31,4.24-9.38,9.67-9.38s9.67,4.07,9.67,9.38-4.24,9.4-9.67,9.4-9.67-4.07-9.67-9.4Zm15.64,0c0-3.37-2.67-5.96-5.98-5.96s-5.96,2.58-5.96,5.96,2.65,5.98,5.96,5.98,5.98-2.6,5.98-5.98Z" style="stroke-width: 0px;"/>
    <path d="m689.22,129.13c0-5.31,4.24-9.38,9.67-9.38s9.67,4.07,9.67,9.38-4.24,9.4-9.67,9.4-9.67-4.07-9.67-9.4Zm15.64,0c0-3.37-2.67-5.96-5.98-5.96s-5.96,2.58-5.96,5.96,2.65,5.98,5.96,5.98,5.98-2.6,5.98-5.98Z" style="stroke-width: 0px;"/>
    <path d="m716.88,123.01v9.43c0,1.76,1.01,2.68,2.46,2.68h1.97v3.06h-2.73c-3.32,0-5.5-1.86-5.5-5.3v-9.88h-2.96v-2.92h2.96v-5.01h3.81v5.01h4.46v2.92h-4.46Z" style="stroke-width: 0px;"/>
    <path d="m575.55,179.9c3.69,0,5.55-2.19,5.55-5.52v-17.79h3.81v17.57c0,5.4-3.37,9.04-9.37,9.04v-3.3Zm5.09-29.43c0-1.35,1.09-2.38,2.39-2.38s2.38,1.03,2.38,2.38-1.09,2.36-2.38,2.36-2.39-1.06-2.39-2.36Z" style="stroke-width: 0px;"/>
    <path d="m607.59,166.17h-15.16c.17,3.37,2.77,5.67,5.91,5.67,2.1,0,4-1.01,5.11-2.8l3.09,1.32c-1.55,2.89-4.55,4.67-8.19,4.67-5.57,0-9.61-4.17-9.61-9.4s4.1-9.4,9.52-9.4,9.23,3.83,9.35,9.19l-.03.75Zm-14.94-2.6h11.06c-.55-2.63-2.7-4.32-5.42-4.32s-4.94,1.71-5.64,4.32Z" style="stroke-width: 0px;"/>
    <path d="m647.83,156.59l-6.65,18.12h-2.96l-5.02-12.87-5.06,12.87h-2.97l-6.6-18.12h4.05l4.32,12.83,5.04-12.83h2.41l5.04,12.83,4.32-12.83h4.07Z" style="stroke-width: 0px;"/>
    <path d="m668.09,166.17h-15.16c.17,3.37,2.77,5.67,5.91,5.67,2.1,0,4-1.01,5.11-2.8l3.09,1.32c-1.56,2.89-4.55,4.67-8.19,4.67-5.57,0-9.6-4.17-9.6-9.4s4.1-9.4,9.52-9.4,9.23,3.83,9.35,9.19l-.04.75Zm-14.94-2.6h11.06c-.55-2.63-2.7-4.32-5.42-4.32s-4.94,1.71-5.64,4.32Z" style="stroke-width: 0px;"/>
    <path d="m681.74,156.42v3.64c-3.69,0-6.17,1.35-6.17,5.35v9.28h-3.81v-18.1h3.71v3.21c1.06-1.79,3.23-3.3,6.27-3.38Z" style="stroke-width: 0px;"/>
    <path d="m701.8,166.17h-15.16c.17,3.37,2.77,5.67,5.91,5.67,2.1,0,4-1.01,5.11-2.8l3.09,1.32c-1.55,2.89-4.55,4.67-8.19,4.67-5.57,0-9.61-4.17-9.61-9.4s4.1-9.4,9.52-9.4,9.23,3.83,9.35,9.19l-.03.75Zm-14.94-2.6h11.06c-.55-2.63-2.7-4.32-5.42-4.32s-4.94,1.71-5.64,4.32Z" style="stroke-width: 0px;"/>
    <path d="m705.46,148.43h3.81v26.25h-3.81v-26.25Z" style="stroke-width: 0px;"/>
    <path d="m713.13,165.61c0-5.31,4.12-9.42,8.94-9.42,2.85,0,5.09,1.2,6.53,3.03l.02-10.78h3.79v26.25h-3.81v-2.63c-1.44,1.81-3.66,2.99-6.53,2.99-4.82,0-8.94-4.1-8.94-9.43Zm15.72,0c0-3.43-2.62-6-5.95-6s-5.98,2.56-5.98,6,2.67,6.03,5.98,6.03,5.95-2.58,5.95-6.03Z" style="stroke-width: 0px;"/>
  </g>
</svg>